<?xml version="1.0" encoding="UTF-8"?>
<svg xmlns="http://www.w3.org/2000/svg" xmlns:xlink="http://www.w3.org/1999/xlink" width="2065px" height="512px" viewBox="0 0 2065 512" version="1.1">
<defs>
<clipPath id="clip1">
  <path d="M 0 0 L 512 0 L 512 512 L 0 512 Z M 0 0 "/>
</clipPath>
<clipPath id="clip2">
  <path d="M 51.199219 0 L 460.785156 0 C 489.0625 0 511.984375 22.921875 511.984375 51.199219 L 511.984375 460.800781 C 511.984375 489.078125 489.0625 512 460.785156 512 L 51.199219 512 C 22.921875 512 0 489.078125 0 460.800781 L 0 51.199219 C 0 22.921875 22.921875 0 51.199219 0 Z M 51.199219 0 "/>
</clipPath>
<clipPath id="clip3">
  <path d="M 53 88 L 436 88 L 436 512 L 53 512 Z M 53 88 "/>
</clipPath>
<clipPath id="clip4">
  <path d="M 51.199219 0 L 460.785156 0 C 489.0625 0 511.984375 22.921875 511.984375 51.199219 L 511.984375 460.800781 C 511.984375 489.078125 489.0625 512 460.785156 512 L 51.199219 512 C 22.921875 512 0 489.078125 0 460.800781 L 0 51.199219 C 0 22.921875 22.921875 0 51.199219 0 Z M 51.199219 0 "/>
</clipPath>
<clipPath id="clip5">
  <path d="M 278 102 L 369 102 L 369 512 L 278 512 Z M 278 102 "/>
</clipPath>
<clipPath id="clip6">
  <path d="M 51.199219 0 L 460.785156 0 C 489.0625 0 511.984375 22.921875 511.984375 51.199219 L 511.984375 460.800781 C 511.984375 489.078125 489.0625 512 460.785156 512 L 51.199219 512 C 22.921875 512 0 489.078125 0 460.800781 L 0 51.199219 C 0 22.921875 22.921875 0 51.199219 0 Z M 51.199219 0 "/>
</clipPath>
<clipPath id="clip7">
  <path d="M 358 187 L 427 187 L 427 512 L 358 512 Z M 358 187 "/>
</clipPath>
<clipPath id="clip8">
  <path d="M 51.199219 0 L 460.785156 0 C 489.0625 0 511.984375 22.921875 511.984375 51.199219 L 511.984375 460.800781 C 511.984375 489.078125 489.0625 512 460.785156 512 L 51.199219 512 C 22.921875 512 0 489.078125 0 460.800781 L 0 51.199219 C 0 22.921875 22.921875 0 51.199219 0 Z M 51.199219 0 "/>
</clipPath>
</defs>
<g id="surface1">
<g clip-path="url(#clip1)" clip-rule="nonzero">
<g clip-path="url(#clip2)" clip-rule="nonzero">
<path style=" stroke:none;fill-rule:nonzero;fill:rgb(99.215686%,34.901961%,34.901961%);fill-opacity:1;" d="M 51.199219 0 L 460.785156 0 C 489.0625 0 511.984375 22.921875 511.984375 51.199219 L 511.984375 460.800781 C 511.984375 489.078125 489.0625 512 460.785156 512 L 51.199219 512 C 22.921875 512 0 489.078125 0 460.800781 L 0 51.199219 C 0 22.921875 22.921875 0 51.199219 0 Z M 51.199219 0 "/>
</g>
</g>
<g clip-path="url(#clip3)" clip-rule="nonzero">
<g clip-path="url(#clip4)" clip-rule="nonzero">
<path style="fill:none;stroke-width:1.68047;stroke-linecap:round;stroke-linejoin:round;stroke:rgb(100%,100%,100%);stroke-opacity:1;stroke-miterlimit:4;" d="M 16.564713 6.000137 L 16.564713 29.727402 M 16.564713 6.000137 L 9.711999 7.468185 L 9.711999 32.500076 L 20.500006 32.999954 L 20.760711 8.691788 Z M 21.229705 11.138535 L 24.5193 13.227768 C 24.588883 18.527298 24.606278 28.200073 24.651598 33.500061 M 9.711999 10.394211 L 4.000068 12.183151 L 4.000068 34.442368 " transform="matrix(17.066116,0,0,17.066667,0,0)"/>
</g>
</g>
<g clip-path="url(#clip5)" clip-rule="nonzero">
<g clip-path="url(#clip6)" clip-rule="nonzero">
<path style=" stroke:none;fill-rule:nonzero;fill:rgb(100%,100%,100%);fill-opacity:1;" d="M 278.230469 102.398438 L 353.214844 147.394531 L 368.214844 597.332031 L 278.230469 597.332031 Z M 278.230469 102.398438 "/>
</g>
</g>
<g clip-path="url(#clip7)" clip-rule="nonzero">
<g clip-path="url(#clip8)" clip-rule="nonzero">
<path style=" stroke:none;fill-rule:nonzero;fill:rgb(100%,100%,100%);fill-opacity:1;" d="M 358.386719 187.734375 L 426.652344 228.691406 L 426.652344 597.332031 L 358.386719 597.332031 Z M 358.386719 187.734375 "/>
</g>
</g>
<path style=" stroke:none;fill-rule:nonzero;fill:rgb(0%,0%,0%);fill-opacity:1;" d="M 655.339844 375.464844 L 655.339844 207.902344 L 699.628906 207.902344 L 699.628906 237.46875 L 701.59375 237.46875 C 705.085938 227.648438 710.902344 219.902344 719.046875 214.230469 C 727.195312 208.558594 736.9375 205.722656 748.28125 205.722656 C 759.773438 205.722656 769.554688 208.59375 777.628906 214.339844 C 785.699219 220.011719 791.082031 227.71875 793.773438 237.46875 L 795.519531 237.46875 C 798.9375 227.867188 805.117188 220.195312 814.0625 214.449219 C 823.082031 208.628906 833.734375 205.722656 846.023438 205.722656 C 861.660156 205.722656 874.351562 210.703125 884.097656 220.667969 C 893.914062 230.558594 898.824219 244.59375 898.824219 262.777344 L 898.824219 375.464844 L 852.460938 375.464844 L 852.460938 271.9375 C 852.460938 262.628906 849.988281 255.648438 845.042969 250.996094 C 840.097656 246.339844 833.917969 244.011719 826.5 244.011719 C 818.0625 244.011719 811.480469 246.703125 806.753906 252.085938 C 802.027344 257.394531 799.664062 264.414062 799.664062 273.140625 L 799.664062 375.464844 L 754.609375 375.464844 L 754.609375 270.957031 C 754.609375 262.738281 752.246094 256.195312 747.519531 251.320312 C 742.867188 246.449219 736.71875 244.011719 729.082031 244.011719 C 723.921875 244.011719 719.265625 245.320312 715.121094 247.9375 C 711.046875 250.484375 707.8125 254.085938 705.414062 258.738281 C 703.011719 263.320312 701.8125 268.703125 701.8125 274.882812 L 701.8125 375.464844 Z M 1141.707031 263.757812 C 1141.707031 288.121094 1137.089844 308.847656 1127.851562 325.9375 C 1118.6875 343.03125 1106.179688 356.085938 1090.328125 365.105469 C 1074.546875 374.046875 1056.800781 378.523438 1037.09375 378.523438 C 1017.238281 378.523438 999.421875 374.011719 983.640625 364.996094 C 967.859375 355.976562 955.386719 342.921875 946.222656 325.828125 C 937.058594 308.738281 932.476562 288.046875 932.476562 263.757812 C 932.476562 239.394531 937.058594 218.667969 946.222656 201.574219 C 955.386719 184.484375 967.859375 171.46875 983.640625 162.519531 C 999.421875 153.503906 1017.238281 148.992188 1037.09375 148.992188 C 1056.800781 148.992188 1074.546875 153.503906 1090.328125 162.519531 C 1106.179688 171.46875 1118.6875 184.484375 1127.851562 201.574219 C 1137.089844 218.667969 1141.707031 239.394531 1141.707031 263.757812 Z M 1093.820312 263.757812 C 1093.820312 247.976562 1091.453125 234.667969 1086.726562 223.832031 C 1082.070312 212.992188 1075.492188 204.777344 1066.980469 199.175781 C 1058.472656 193.574219 1048.507812 190.777344 1037.09375 190.777344 C 1025.675781 190.777344 1015.710938 193.574219 1007.203125 199.175781 C 998.695312 204.777344 992.074219 212.992188 987.347656 223.832031 C 982.695312 234.667969 980.367188 247.976562 980.367188 263.757812 C 980.367188 279.539062 982.695312 292.847656 987.347656 303.683594 C 992.074219 314.523438 998.695312 322.738281 1007.203125 328.339844 C 1015.710938 333.941406 1025.675781 336.738281 1037.09375 336.738281 C 1048.507812 336.738281 1058.472656 333.941406 1066.980469 328.339844 C 1075.492188 322.738281 1082.070312 314.523438 1086.726562 303.683594 C 1091.453125 292.847656 1093.820312 279.539062 1093.820312 263.757812 Z M 1315.238281 255.683594 L 1272.695312 258.300781 C 1271.964844 254.667969 1270.402344 251.394531 1268.003906 248.484375 C 1265.601562 245.503906 1262.441406 243.136719 1258.511719 241.394531 C 1254.65625 239.574219 1250.039062 238.667969 1244.660156 238.667969 C 1237.457031 238.667969 1231.386719 240.195312 1226.441406 243.246094 C 1221.496094 246.230469 1219.023438 250.230469 1219.023438 255.25 C 1219.023438 259.246094 1220.625 262.628906 1223.824219 265.394531 C 1227.023438 268.160156 1232.511719 270.375 1240.296875 272.046875 L 1270.621094 278.15625 C 1286.910156 281.503906 1299.058594 286.886719 1307.054688 294.300781 C 1315.058594 301.722656 1319.054688 311.464844 1319.054688 323.539062 C 1319.054688 334.523438 1315.820312 344.15625 1309.347656 352.449219 C 1302.945312 360.738281 1294.148438 367.210938 1282.949219 371.867188 C 1271.820312 376.449219 1258.984375 378.738281 1244.441406 378.738281 C 1222.261719 378.738281 1204.585938 374.121094 1191.421875 364.886719 C 1178.332031 355.574219 1170.660156 342.921875 1168.40625 326.921875 L 1214.113281 324.519531 C 1215.496094 331.285156 1218.839844 336.449219 1224.148438 340.011719 C 1229.457031 343.503906 1236.257812 345.25 1244.550781 345.25 C 1252.695312 345.25 1259.242188 343.683594 1264.183594 340.558594 C 1269.203125 337.355469 1271.75 333.25 1271.820312 328.230469 C 1271.75 324.011719 1269.964844 320.558594 1266.476562 317.867188 C 1262.984375 315.105469 1257.605469 312.992188 1250.332031 311.539062 L 1221.3125 305.757812 C 1204.949219 302.484375 1192.769531 296.8125 1184.769531 288.738281 C 1176.839844 280.667969 1172.878906 270.375 1172.878906 257.867188 C 1172.878906 247.101562 1175.785156 237.832031 1181.605469 230.046875 C 1187.496094 222.265625 1195.75 216.265625 1206.367188 212.046875 C 1217.058594 207.832031 1229.566406 205.722656 1243.894531 205.722656 C 1265.058594 205.722656 1281.710938 210.195312 1293.855469 219.140625 C 1306.074219 228.085938 1313.203125 240.265625 1315.238281 255.683594 Z M 1348.320312 375.464844 L 1348.320312 207.902344 L 1394.789062 207.902344 L 1394.789062 375.464844 Z M 1371.664062 186.304688 C 1364.753906 186.304688 1358.828125 184.011719 1353.882812 179.429688 C 1349.011719 174.777344 1346.574219 169.210938 1346.574219 162.738281 C 1346.574219 156.339844 1349.011719 150.847656 1353.882812 146.265625 C 1358.828125 141.613281 1364.753906 139.285156 1371.664062 139.285156 C 1378.570312 139.285156 1384.464844 141.613281 1389.335938 146.265625 C 1394.28125 150.847656 1396.753906 156.339844 1396.753906 162.738281 C 1396.753906 169.210938 1394.28125 174.777344 1389.335938 179.429688 C 1384.464844 184.011719 1378.570312 186.304688 1371.664062 186.304688 Z M 1508.375 378.738281 C 1491.140625 378.738281 1476.304688 375.25 1463.871094 368.265625 C 1451.503906 361.210938 1441.980469 351.25 1435.289062 338.375 C 1428.597656 325.429688 1425.253906 310.121094 1425.253906 292.449219 C 1425.253906 275.210938 1428.597656 260.085938 1435.289062 247.066406 C 1441.980469 234.050781 1451.394531 223.902344 1463.542969 216.628906 C 1475.761719 209.355469 1490.085938 205.722656 1506.523438 205.722656 C 1517.578125 205.722656 1527.867188 207.503906 1537.394531 211.066406 C 1546.992188 214.558594 1555.359375 219.832031 1562.484375 226.882812 C 1569.683594 233.941406 1575.285156 242.8125 1579.285156 253.503906 C 1583.285156 264.121094 1585.285156 276.558594 1585.285156 290.8125 L 1585.285156 303.574219 L 1443.796875 303.574219 L 1443.796875 274.773438 L 1541.539062 274.773438 C 1541.539062 268.085938 1540.085938 262.15625 1537.175781 256.992188 C 1534.269531 251.832031 1530.230469 247.792969 1525.066406 244.882812 C 1519.976562 241.902344 1514.050781 240.410156 1507.285156 240.410156 C 1500.230469 240.410156 1493.976562 242.046875 1488.523438 245.320312 C 1483.140625 248.519531 1478.925781 252.847656 1475.871094 258.300781 C 1472.8125 263.683594 1471.25 269.683594 1471.175781 276.300781 L 1471.175781 303.683594 C 1471.175781 311.976562 1472.707031 319.140625 1475.761719 325.175781 C 1478.886719 331.210938 1483.289062 335.867188 1488.957031 339.136719 C 1494.632812 342.410156 1501.359375 344.046875 1509.140625 344.046875 C 1514.304688 344.046875 1519.03125 343.320312 1523.320312 341.867188 C 1527.613281 340.410156 1531.285156 338.230469 1534.339844 335.320312 C 1537.394531 332.414062 1539.722656 328.847656 1541.320312 324.628906 L 1584.300781 327.464844 C 1582.121094 337.792969 1577.648438 346.8125 1570.882812 354.519531 C 1564.191406 362.15625 1555.539062 368.121094 1544.921875 372.410156 C 1534.375 376.628906 1522.195312 378.738281 1508.375 378.738281 Z M 1677.351562 378.195312 C 1664.628906 378.195312 1653.097656 374.921875 1642.773438 368.375 C 1632.519531 361.757812 1624.375 352.046875 1618.335938 339.246094 C 1612.375 326.375 1609.394531 310.59375 1609.394531 291.902344 C 1609.394531 272.703125 1612.484375 256.738281 1618.664062 244.011719 C 1624.847656 231.210938 1633.0625 221.648438 1643.320312 215.320312 C 1653.644531 208.921875 1664.953125 205.722656 1677.246094 205.722656 C 1686.625 205.722656 1694.445312 207.320312 1700.699219 210.519531 C 1707.019531 213.648438 1712.125 217.574219 1715.964844 222.304688 C 1719.890625 226.957031 1722.875 231.539062 1724.921875 236.050781 L 1726.339844 236.050781 L 1726.339844 152.046875 L 1772.691406 152.046875 L 1772.691406 375.464844 L 1726.886719 375.464844 L 1726.886719 348.632812 L 1724.921875 348.632812 C 1722.738281 353.285156 1719.648438 357.902344 1715.640625 362.484375 C 1711.714844 366.996094 1706.589844 370.738281 1700.261719 373.722656 C 1694.007812 376.703125 1686.371094 378.195312 1677.351562 378.195312 Z M 1692.078125 341.210938 C 1699.570312 341.210938 1705.898438 339.175781 1711.066406 335.101562 C 1716.304688 330.957031 1720.296875 325.175781 1723.0625 317.757812 C 1725.894531 310.339844 1727.3125 301.648438 1727.3125 291.683594 C 1727.3125 281.722656 1725.929688 273.066406 1723.164062 265.722656 C 1720.402344 258.375 1716.40625 252.703125 1711.167969 248.703125 C 1705.933594 244.703125 1699.570312 242.703125 1692.078125 242.703125 C 1684.445312 242.703125 1678.007812 244.773438 1672.769531 248.921875 C 1667.535156 253.066406 1663.574219 258.8125 1660.882812 266.15625 C 1658.191406 273.503906 1656.84375 282.011719 1656.84375 291.683594 C 1656.84375 301.429688 1658.191406 310.046875 1660.882812 317.539062 C 1663.644531 324.957031 1667.609375 330.777344 1672.769531 334.996094 C 1678.007812 339.136719 1684.445312 341.210938 1692.078125 341.210938 Z M 1857.375 152.046875 L 1857.375 375.464844 L 1810.902344 375.464844 L 1810.902344 152.046875 Z M 1970.964844 378.738281 C 1953.730469 378.738281 1938.898438 375.25 1926.457031 368.265625 C 1914.085938 361.210938 1904.5625 351.25 1897.871094 338.375 C 1891.179688 325.429688 1887.835938 310.121094 1887.835938 292.449219 C 1887.835938 275.210938 1891.179688 260.085938 1897.871094 247.066406 C 1904.5625 234.050781 1913.980469 223.902344 1926.132812 216.628906 C 1938.351562 209.355469 1952.671875 205.722656 1969.105469 205.722656 C 1980.164062 205.722656 1990.457031 207.503906 1999.976562 211.066406 C 2009.585938 214.558594 2017.949219 219.832031 2025.066406 226.882812 C 2032.265625 233.941406 2037.863281 242.8125 2041.875 253.503906 C 2045.867188 264.121094 2047.867188 276.558594 2047.867188 290.8125 L 2047.867188 303.574219 L 1906.386719 303.574219 L 1906.386719 274.773438 L 2004.125 274.773438 C 2004.125 268.085938 2002.675781 262.15625 1999.757812 256.992188 C 1996.855469 251.832031 1992.808594 247.792969 1987.65625 244.882812 C 1982.554688 241.902344 1976.632812 240.410156 1969.875 240.410156 C 1962.824219 240.410156 1956.5625 242.046875 1951.101562 245.320312 C 1945.726562 248.519531 1941.507812 252.847656 1938.453125 258.300781 C 1935.398438 263.683594 1933.828125 269.683594 1933.761719 276.300781 L 1933.761719 303.683594 C 1933.761719 311.976562 1935.296875 319.140625 1938.351562 325.175781 C 1941.476562 331.210938 1945.878906 335.867188 1951.542969 339.136719 C 1957.210938 342.410156 1963.953125 344.046875 1971.734375 344.046875 C 1976.886719 344.046875 1981.613281 343.320312 1985.914062 341.867188 C 1990.199219 340.410156 1993.867188 338.230469 1996.921875 335.320312 C 1999.976562 332.414062 2002.300781 328.847656 2003.902344 324.628906 L 2046.894531 327.464844 C 2044.707031 337.792969 2040.238281 346.8125 2033.460938 354.519531 C 2026.773438 362.15625 2018.121094 368.121094 2007.503906 372.410156 C 1996.957031 376.628906 1984.773438 378.738281 1970.964844 378.738281 Z M 1970.964844 378.738281 "/>
</g>
</svg>
